<mxfile host="app.diagrams.net" modified="2023-11-23T17:01:54.540Z" agent="Mozilla/5.0 (Windows NT 10.0; Win64; x64) AppleWebKit/537.36 (KHTML, like Gecko) Chrome/119.0.0.0 Safari/537.36" etag="rxifenK5w4SJYfgwmdT6" version="22.1.3" type="github">
  <diagram name="Page-1" id="8ce9d11a-91a2-4d17-14d8-a56ed91bf033">
    <mxGraphModel dx="4028" dy="632" grid="0" gridSize="17" guides="0" tooltips="1" connect="0" arrows="0" fold="1" page="1" pageScale="1" pageWidth="1920" pageHeight="1200" background="none" math="0" shadow="0">
      <root>
        <mxCell id="0" />
        <mxCell id="1" parent="0" />
        <object label="" id="gsZWW2OXpgVZkUkckgpa-1">
          <mxCell style="ellipse;whiteSpace=wrap;html=1;" parent="1" vertex="1">
            <mxGeometry y="2" width="120" height="80" as="geometry" />
          </mxCell>
        </object>
        <mxCell id="gsZWW2OXpgVZkUkckgpa-2" value="InÃ­cio" style="text;strokeColor=none;align=center;fillColor=none;html=1;verticalAlign=middle;whiteSpace=wrap;rounded=0;" parent="1" vertex="1">
          <mxGeometry x="31" y="28" width="60" height="30" as="geometry" />
        </mxCell>
        <mxCell id="gsZWW2OXpgVZkUkckgpa-4" value="Saldo" style="html=1;strokeWidth=2;shape=manualInput;whiteSpace=wrap;rounded=1;size=26;arcSize=11;" parent="1" vertex="1">
          <mxGeometry x="4" y="120" width="100" height="60" as="geometry" />
        </mxCell>
        <mxCell id="gsZWW2OXpgVZkUkckgpa-7" value="Saldo inicial: &quot; + saldo" style="shape=display;whiteSpace=wrap;html=1;" parent="1" vertex="1">
          <mxGeometry x="281" y="113" width="130" height="50" as="geometry" />
        </mxCell>
        <mxCell id="gsZWW2OXpgVZkUkckgpa-8" value="" style="edgeStyle=segmentEdgeStyle;endArrow=classic;html=1;curved=0;rounded=0;endSize=8;startSize=8;" parent="1" edge="1">
          <mxGeometry width="50" height="50" relative="1" as="geometry">
            <mxPoint x="353" y="170" as="sourcePoint" />
            <mxPoint x="128" y="256" as="targetPoint" />
            <Array as="points">
              <mxPoint x="353" y="166" />
              <mxPoint x="353" y="256" />
            </Array>
          </mxGeometry>
        </mxCell>
        <mxCell id="gsZWW2OXpgVZkUkckgpa-9" value="" style="endArrow=classic;html=1;rounded=0;" parent="1" edge="1">
          <mxGeometry width="50" height="50" relative="1" as="geometry">
            <mxPoint x="61" y="84" as="sourcePoint" />
            <mxPoint x="61.5" y="123" as="targetPoint" />
            <Array as="points" />
          </mxGeometry>
        </mxCell>
        <mxCell id="gsZWW2OXpgVZkUkckgpa-10" value="" style="endArrow=classic;html=1;rounded=0;" parent="1" edge="1">
          <mxGeometry width="50" height="50" relative="1" as="geometry">
            <mxPoint x="106" y="138" as="sourcePoint" />
            <mxPoint x="276" y="138.5" as="targetPoint" />
            <Array as="points">
              <mxPoint x="136" y="138" />
            </Array>
          </mxGeometry>
        </mxCell>
        <mxCell id="gsZWW2OXpgVZkUkckgpa-11" value="encerrar = &#39;n&#39;" style="shape=ext;double=1;rounded=1;whiteSpace=wrap;html=1;" parent="1" vertex="1">
          <mxGeometry x="5" y="229" width="120" height="50" as="geometry" />
        </mxCell>
        <mxCell id="gsZWW2OXpgVZkUkckgpa-12" value="" style="endArrow=classic;html=1;rounded=0;" parent="1" edge="1">
          <mxGeometry width="50" height="50" relative="1" as="geometry">
            <mxPoint x="67" y="282" as="sourcePoint" />
            <mxPoint x="67" y="310" as="targetPoint" />
          </mxGeometry>
        </mxCell>
        <mxCell id="gsZWW2OXpgVZkUkckgpa-14" value="" style="endArrow=classic;html=1;rounded=0;strokeColor=#009900;" parent="1" edge="1">
          <mxGeometry width="50" height="50" relative="1" as="geometry">
            <mxPoint x="67.5" y="467" as="sourcePoint" />
            <mxPoint x="67" y="491" as="targetPoint" />
          </mxGeometry>
        </mxCell>
        <mxCell id="gsZWW2OXpgVZkUkckgpa-17" value="tipo de entrada&lt;br&gt;" style="html=1;strokeWidth=2;shape=manualInput;whiteSpace=wrap;rounded=1;size=26;arcSize=11;" parent="1" vertex="1">
          <mxGeometry x="13" y="483" width="100" height="60" as="geometry" />
        </mxCell>
        <mxCell id="gsZWW2OXpgVZkUkckgpa-18" value="" style="endArrow=classic;html=1;rounded=0;" parent="1" edge="1">
          <mxGeometry width="50" height="50" relative="1" as="geometry">
            <mxPoint x="66" y="548" as="sourcePoint" />
            <mxPoint x="66" y="574" as="targetPoint" />
          </mxGeometry>
        </mxCell>
        <mxCell id="gsZWW2OXpgVZkUkckgpa-19" value="quantidade&lt;br&gt;" style="html=1;strokeWidth=2;shape=manualInput;whiteSpace=wrap;rounded=1;size=26;arcSize=11;" parent="1" vertex="1">
          <mxGeometry x="15" y="564" width="100" height="60" as="geometry" />
        </mxCell>
        <mxCell id="gsZWW2OXpgVZkUkckgpa-20" value="" style="endArrow=classic;html=1;rounded=0;" parent="1" edge="1">
          <mxGeometry width="50" height="50" relative="1" as="geometry">
            <mxPoint x="66" y="624" as="sourcePoint" />
            <mxPoint x="66" y="645" as="targetPoint" />
            <Array as="points">
              <mxPoint x="66" y="635" />
            </Array>
          </mxGeometry>
        </mxCell>
        <mxCell id="gsZWW2OXpgVZkUkckgpa-21" value="encerrar = &#39;n&#39;&lt;br&gt;" style="html=1;whiteSpace=wrap;aspect=fixed;shape=isoRectangle;direction=south;" parent="1" vertex="1">
          <mxGeometry x="22" y="315" width="90" height="150" as="geometry" />
        </mxCell>
        <mxCell id="gsZWW2OXpgVZkUkckgpa-22" value="tipo entrada = 1&lt;br&gt;" style="html=1;whiteSpace=wrap;aspect=fixed;shape=isoRectangle;direction=south;" parent="1" vertex="1">
          <mxGeometry x="30" y="646" width="71.4" height="119" as="geometry" />
        </mxCell>
        <mxCell id="gsZWW2OXpgVZkUkckgpa-23" value="" style="endArrow=classic;html=1;rounded=0;fillColor=#45FF9C;strokeColor=#006600;" parent="1" edge="1">
          <mxGeometry width="50" height="50" relative="1" as="geometry">
            <mxPoint x="102" y="705" as="sourcePoint" />
            <mxPoint x="128" y="705" as="targetPoint" />
          </mxGeometry>
        </mxCell>
        <mxCell id="gsZWW2OXpgVZkUkckgpa-24" value="saldo = saldo + quantidade&lt;br&gt;&amp;nbsp;" style="rounded=1;whiteSpace=wrap;html=1;" parent="1" vertex="1">
          <mxGeometry x="129" y="682" width="82" height="50" as="geometry" />
        </mxCell>
        <mxCell id="gsZWW2OXpgVZkUkckgpa-25" value="" style="endArrow=classic;html=1;rounded=0;" parent="1" edge="1">
          <mxGeometry width="50" height="50" relative="1" as="geometry">
            <mxPoint x="214" y="706" as="sourcePoint" />
            <mxPoint x="251" y="706" as="targetPoint" />
            <Array as="points">
              <mxPoint x="214" y="706" />
            </Array>
          </mxGeometry>
        </mxCell>
        <mxCell id="gsZWW2OXpgVZkUkckgpa-26" value="&quot;Entrada: &quot; + quantidade&lt;br&gt;" style="shape=display;whiteSpace=wrap;html=1;" parent="1" vertex="1">
          <mxGeometry x="252" y="675" width="89" height="60" as="geometry" />
        </mxCell>
        <mxCell id="gsZWW2OXpgVZkUkckgpa-28" value="" style="edgeStyle=segmentEdgeStyle;endArrow=classic;html=1;curved=0;rounded=0;endSize=8;startSize=8;" parent="1" edge="1">
          <mxGeometry width="50" height="50" relative="1" as="geometry">
            <mxPoint x="344" y="705" as="sourcePoint" />
            <mxPoint x="73" y="815" as="targetPoint" />
            <Array as="points">
              <mxPoint x="344" y="703" />
              <mxPoint x="344" y="705" />
              <mxPoint x="423" y="705" />
              <mxPoint x="423" y="815" />
            </Array>
          </mxGeometry>
        </mxCell>
        <mxCell id="gsZWW2OXpgVZkUkckgpa-29" value="" style="endArrow=classic;html=1;rounded=0;strokeColor=#EA6B66;" parent="1" edge="1">
          <mxGeometry width="50" height="50" relative="1" as="geometry">
            <mxPoint x="66" y="768" as="sourcePoint" />
            <mxPoint x="66" y="818" as="targetPoint" />
          </mxGeometry>
        </mxCell>
        <mxCell id="gsZWW2OXpgVZkUkckgpa-30" value="" style="edgeStyle=segmentEdgeStyle;endArrow=classic;html=1;curved=0;rounded=0;endSize=8;startSize=8;strokeColor=#EA6B66;" parent="1" edge="1">
          <mxGeometry width="50" height="50" relative="1" as="geometry">
            <mxPoint x="113" y="390" as="sourcePoint" />
            <mxPoint x="567" y="1428" as="targetPoint" />
          </mxGeometry>
        </mxCell>
        <mxCell id="gsZWW2OXpgVZkUkckgpa-31" value="tipo entrada = 2" style="html=1;whiteSpace=wrap;aspect=fixed;shape=isoRectangle;direction=south;" parent="1" vertex="1">
          <mxGeometry x="30" y="819" width="71.4" height="119" as="geometry" />
        </mxCell>
        <mxCell id="gsZWW2OXpgVZkUkckgpa-32" value="" style="edgeStyle=segmentEdgeStyle;endArrow=classic;html=1;curved=0;rounded=0;endSize=8;startSize=8;shadow=1;strokeColor=#009900;" parent="1" edge="1">
          <mxGeometry width="50" height="50" relative="1" as="geometry">
            <mxPoint x="102" y="877.03" as="sourcePoint" />
            <mxPoint x="142" y="877.2" as="targetPoint" />
          </mxGeometry>
        </mxCell>
        <mxCell id="gsZWW2OXpgVZkUkckgpa-33" value="saldo &amp;gt;= quantidade&lt;br&gt;" style="html=1;whiteSpace=wrap;aspect=fixed;shape=isoRectangle;direction=south;" parent="1" vertex="1">
          <mxGeometry x="141" y="817" width="73.2" height="122" as="geometry" />
        </mxCell>
        <mxCell id="gsZWW2OXpgVZkUkckgpa-34" value="" style="edgeStyle=segmentEdgeStyle;endArrow=classic;html=1;curved=0;rounded=0;endSize=8;startSize=8;shadow=1;strokeColor=#009900;" parent="1" edge="1">
          <mxGeometry width="50" height="50" relative="1" as="geometry">
            <mxPoint x="216" y="878" as="sourcePoint" />
            <mxPoint x="256" y="878.1700000000001" as="targetPoint" />
          </mxGeometry>
        </mxCell>
        <mxCell id="gsZWW2OXpgVZkUkckgpa-35" value="saldo = saldo - quantidade&lt;br&gt;&amp;nbsp;" style="rounded=1;whiteSpace=wrap;html=1;" parent="1" vertex="1">
          <mxGeometry x="257" y="847" width="120" height="60" as="geometry" />
        </mxCell>
        <mxCell id="gsZWW2OXpgVZkUkckgpa-36" value="" style="endArrow=classic;html=1;rounded=0;" parent="1" edge="1">
          <mxGeometry width="50" height="50" relative="1" as="geometry">
            <mxPoint x="321" y="909" as="sourcePoint" />
            <mxPoint x="321" y="968" as="targetPoint" />
          </mxGeometry>
        </mxCell>
        <mxCell id="gsZWW2OXpgVZkUkckgpa-37" value="&quot;SaÃ­da: &quot; + quantidade" style="shape=display;whiteSpace=wrap;html=1;" parent="1" vertex="1">
          <mxGeometry x="248" y="974" width="130" height="60" as="geometry" />
        </mxCell>
        <mxCell id="gsZWW2OXpgVZkUkckgpa-39" value="&quot;Saldo insuficiente&quot;&lt;br&gt;" style="shape=display;whiteSpace=wrap;html=1;" parent="1" vertex="1">
          <mxGeometry x="103" y="974" width="130" height="60" as="geometry" />
        </mxCell>
        <mxCell id="gsZWW2OXpgVZkUkckgpa-40" value="" style="endArrow=classic;html=1;rounded=0;strokeColor=#EA6B66;" parent="1" edge="1">
          <mxGeometry width="50" height="50" relative="1" as="geometry">
            <mxPoint x="66" y="944" as="sourcePoint" />
            <mxPoint x="66" y="1164" as="targetPoint" />
          </mxGeometry>
        </mxCell>
        <mxCell id="gsZWW2OXpgVZkUkckgpa-41" value="" style="endArrow=classic;html=1;rounded=0;strokeColor=#EA6B66;" parent="1" edge="1">
          <mxGeometry width="50" height="50" relative="1" as="geometry">
            <mxPoint x="177" y="944" as="sourcePoint" />
            <mxPoint x="177" y="974" as="targetPoint" />
            <Array as="points">
              <mxPoint x="177" y="954" />
            </Array>
          </mxGeometry>
        </mxCell>
        <mxCell id="gsZWW2OXpgVZkUkckgpa-42" value="" style="endArrow=classic;html=1;rounded=0;" parent="1" edge="1">
          <mxGeometry width="50" height="50" relative="1" as="geometry">
            <mxPoint x="317" y="1043" as="sourcePoint" />
            <mxPoint x="95" y="1117" as="targetPoint" />
            <Array as="points">
              <mxPoint x="317" y="1113" />
            </Array>
          </mxGeometry>
        </mxCell>
        <mxCell id="gsZWW2OXpgVZkUkckgpa-43" value="" style="endArrow=classic;html=1;rounded=0;" parent="1" edge="1">
          <mxGeometry width="50" height="50" relative="1" as="geometry">
            <mxPoint x="179" y="1041" as="sourcePoint" />
            <mxPoint x="93" y="1071" as="targetPoint" />
            <Array as="points">
              <mxPoint x="179" y="1071" />
              <mxPoint x="99" y="1071" />
            </Array>
          </mxGeometry>
        </mxCell>
        <mxCell id="gsZWW2OXpgVZkUkckgpa-44" value="saldo&lt;br&gt;" style="shape=display;whiteSpace=wrap;html=1;" parent="1" vertex="1">
          <mxGeometry x="11" y="1176" width="130" height="60" as="geometry" />
        </mxCell>
        <mxCell id="gsZWW2OXpgVZkUkckgpa-45" value="encerrar ? (s/n)" style="html=1;strokeWidth=2;shape=manualInput;whiteSpace=wrap;rounded=1;size=26;arcSize=11;" parent="1" vertex="1">
          <mxGeometry x="21" y="1288" width="120" height="70" as="geometry" />
        </mxCell>
        <mxCell id="gsZWW2OXpgVZkUkckgpa-46" value="" style="endArrow=classic;html=1;rounded=0;" parent="1" edge="1">
          <mxGeometry width="50" height="50" relative="1" as="geometry">
            <mxPoint x="74" y="1246" as="sourcePoint" />
            <mxPoint x="74" y="1286" as="targetPoint" />
          </mxGeometry>
        </mxCell>
        <mxCell id="gsZWW2OXpgVZkUkckgpa-47" value="&quot;Sistema encerrado&quot;&lt;br&gt;" style="shape=display;whiteSpace=wrap;html=1;" parent="1" vertex="1">
          <mxGeometry x="7" y="1407" width="130" height="60" as="geometry" />
        </mxCell>
        <mxCell id="gsZWW2OXpgVZkUkckgpa-48" value="" style="endArrow=classic;html=1;rounded=0;" parent="1" edge="1">
          <mxGeometry width="50" height="50" relative="1" as="geometry">
            <mxPoint x="78" y="1470" as="sourcePoint" />
            <mxPoint x="78" y="1510" as="targetPoint" />
          </mxGeometry>
        </mxCell>
        <mxCell id="gsZWW2OXpgVZkUkckgpa-50" value="Fim&lt;br&gt;" style="strokeWidth=2;html=1;shape=mxgraph.flowchart.start_1;whiteSpace=wrap;" parent="1" vertex="1">
          <mxGeometry x="7" y="1516" width="130" height="70" as="geometry" />
        </mxCell>
        <mxCell id="gsZWW2OXpgVZkUkckgpa-51" value="" style="endArrow=classic;html=1;rounded=0;strokeColor=#EA6B66;" parent="1" edge="1">
          <mxGeometry width="50" height="50" relative="1" as="geometry">
            <mxPoint x="562" y="1440" as="sourcePoint" />
            <mxPoint x="142" y="1440" as="targetPoint" />
          </mxGeometry>
        </mxCell>
        <mxCell id="gsZWW2OXpgVZkUkckgpa-52" value="" style="edgeStyle=segmentEdgeStyle;endArrow=classic;html=1;curved=0;rounded=0;endSize=8;startSize=8;exitX=-0.008;exitY=0.714;exitDx=0;exitDy=0;exitPerimeter=0;" parent="1" edge="1" source="gsZWW2OXpgVZkUkckgpa-45">
          <mxGeometry width="50" height="50" relative="1" as="geometry">
            <mxPoint y="1340" as="sourcePoint" />
            <mxPoint y="391" as="targetPoint" />
          </mxGeometry>
        </mxCell>
        <mxCell id="gsZWW2OXpgVZkUkckgpa-53" value="" style="endArrow=classic;html=1;rounded=0;" parent="1" edge="1">
          <mxGeometry width="50" height="50" relative="1" as="geometry">
            <mxPoint x="3" y="390" as="sourcePoint" />
            <mxPoint x="20" y="390.5" as="targetPoint" />
            <Array as="points" />
          </mxGeometry>
        </mxCell>
      </root>
    </mxGraphModel>
  </diagram>
</mxfile>
